<?xml version="1.0" encoding="utf-8"?>
<!-- Generator: Adobe Illustrator 16.0.0, SVG Export Plug-In . SVG Version: 6.00 Build 0)  -->
<!DOCTYPE svg PUBLIC "-//W3C//DTD SVG 1.1//EN" "http://www.w3.org/Graphics/SVG/1.1/DTD/svg11.dtd">
<svg version="1.1" id="Layer_1" xmlns="http://www.w3.org/2000/svg" xmlns:xlink="http://www.w3.org/1999/xlink" x="0px" y="0px"
	 width="134.333px" height="73.333px" viewBox="0 0 134.333 73.333" enable-background="new 0 0 134.333 73.333"
	 xml:space="preserve">
<g>
	<path fill="none" stroke="#000000" stroke-width="8.0157" stroke-miterlimit="10" d="M8.608,8.005
		c0,30.796,26.681,55.718,59.653,55.718"/>
	<path fill="none" stroke="#000000" stroke-width="7.8556" stroke-miterlimit="10" d="M8.608,8.005
		c0,20.283,27.339,36.699,61.124,36.699"/>
	<path fill="none" stroke="#000000" stroke-width="7.2428" stroke-miterlimit="10" d="M69.732,26.087
		c-26.846,0-61.124-9.239-61.124-18.082"/>
	<circle fill="#FFFFFF" stroke="#000000" stroke-width="3" stroke-miterlimit="10" cx="65.44" cy="63.723" r="5.292"/>
	<circle fill="#FFFFFF" stroke="#000000" stroke-width="3" stroke-miterlimit="10" cx="65.44" cy="44.704" r="5.292"/>
	<circle fill="#FFFFFF" stroke="#000000" stroke-width="3" stroke-miterlimit="10" cx="65.44" cy="26.087" r="5.292"/>
	<circle fill="#FFFFFF" stroke="#000000" stroke-width="3" stroke-miterlimit="10" cx="9.608" cy="9.61" r="5.292"/>
</g>
<path fill="none" stroke="#000000" stroke-width="10" stroke-miterlimit="10" d="M60.167-255.655"/>
<ellipse fill="#010202" cx="129.123" cy="32.263" rx="2.969" ry="2.662"/>
<g>
	<path d="M104.542,55.634c0,0,0.251,0.032,0.65,0.127c0.381,0.091,0.927,0.225,1.528,0.501c0.605,0.26,1.258,0.669,1.905,1.138
		c0.595,0.435,1.131,0.52,1.952,0.64c0.77,0.071,1.611-0.027,2.466-0.322c0.85-0.283,1.726-0.783,2.409-1.395
		c0.332-0.302,0.625-0.644,0.742-0.879c0.027-0.055,0.049-0.104,0.053-0.129c0.011-0.019-0.001-0.018,0.001-0.021l0.001-0.002
		c0.019-0.069-0.026,0.096-0.021,0.071l0.004-0.017l0.008-0.031l0.026-0.11l0.09-0.695c0.128-1.237,0.163-2.618,0.143-3.943
		c-0.01-1.329-0.096-2.66-0.303-3.805c-0.106-0.556-0.236-1.094-0.362-1.376c-0.014-0.028-0.028-0.078-0.039-0.091l-0.015-0.03
		l-0.006-0.016l-0.003-0.008l-0.002-0.004c0.14,0.206,0.033,0.049,0.062,0.092l-0.287-0.428c-0.139-0.169-0.142-0.206-0.312-0.378
		c-0.531-0.562-1.188-0.922-1.958-1.091c-0.764-0.181-1.647-0.11-2.486,0.076c-0.42,0.098-0.833,0.228-1.229,0.368
		c-0.198,0.069-0.388,0.163-0.575,0.239l-0.278,0.119l-0.035,0.015l-0.008,0.003c0.022-0.015-0.062,0.04,0.048-0.033l-0.019,0.01
		c-0.013,0.006-0.076,0.044-0.048,0.023c0.015-0.013,0.03-0.028,0.04-0.041l-0.026,0.012c-0.189,0.115-0.526,0.395-0.816,0.605
		c-0.31,0.217-0.617,0.421-0.926,0.585c-0.611,0.334-1.208,0.526-1.656,0.598c-0.464,0.091-0.748-0.079-0.719-0.082
		c0.025,0.011,0.131-0.194,0.177-0.564c0.07-0.359,0.142-0.901,0.344-1.525c0.099-0.315,0.234-0.648,0.414-1.011
		c0.203-0.364,0.39-0.72,0.844-1.201l0.097-0.098l0.169-0.145l0.089-0.075l0.016-0.014l0.076-0.052l0.038-0.028l0.315-0.229
		c0.216-0.153,0.43-0.321,0.67-0.474c0.481-0.304,1-0.62,1.598-0.884c1.181-0.527,2.642-0.994,4.347-0.903
		c1.684,0.054,3.574,0.715,5.011,2.013c0.336,0.273,0.771,0.759,1.065,1.12l0.311,0.411l0.096,0.143l0.029,0.048l0.059,0.096
		l0.115,0.194c0.081,0.134,0.13,0.247,0.195,0.372c0.464,0.976,0.678,1.812,0.841,2.644c0.307,1.642,0.401,3.19,0.429,4.736
		c0.007,1.549-0.064,3.047-0.252,4.624l-0.087,0.616c-0.035,0.216-0.066,0.411-0.152,0.774l-0.038,0.146l-0.043,0.149l-0.042,0.122
		c-0.058,0.161-0.118,0.33-0.186,0.469c-0.133,0.296-0.279,0.553-0.432,0.794c-0.617,0.944-1.31,1.587-2.03,2.121
		c-1.436,1.06-2.993,1.657-4.55,1.922c-1.556,0.259-3.111,0.133-4.436-0.312c-0.657-0.213-1.266-0.502-1.837-0.851l-0.303-0.207
		c-0.213-0.133-0.323-0.24-0.48-0.364c-0.164-0.13-0.245-0.222-0.336-0.314l-0.268-0.278c-0.657-0.702-1.09-1.368-1.367-2.005
		c-0.282-0.62-0.41-1.209-0.481-1.617C104.517,55.882,104.542,55.634,104.542,55.634z"/>
</g>
<rect x="81.625" y="27.688" width="17.334" height="4.541"/>
<rect x="81.625" y="28.612" width="4.541" height="33.511"/>
<rect x="81.625" y="57.907" width="17.334" height="4.541"/>
<rect x="81.625" y="43.098" width="15.625" height="4.541"/>
<rect x="126.852" y="38.925" width="4.541" height="23.523"/>
<rect x="103.405" y="38.925" width="4.541" height="31.248"/>
</svg>
